<svg xmlns="http://www.w3.org/2000/svg" height="48" viewBox="0 96 960 960" width="48"><path d="M458 999q-84-4-157.5-38.5t-127.5-92Q119 811 87.5 736.177 56 661.354 56 575.946 56 488 89.61 410.875q33.61-77.124 90.87-134.388 57.26-57.263 134.38-90.875T480 152q156.6 0 272.8 99Q869 350 897 499h-74q-18.356-85.059-73.678-152.029Q694 280 611 246v18q0 37-24.5 63.5T525 354h-89v90q0 17.575-13.5 28.787Q409 484 391 484h-87v91h105v129h-60L138 494q-5 20-7 40.667-2 20.666-2 41.608Q129 716 223.5 817.5T458 926v73Zm390-43L715 823q-22 15-46 22t-48.565 7q-74.098 0-125.267-51.059Q444 749.882 444 675.941T495.059 550.5q51.059-51.5 125-51.5T745.5 550.46Q797 601.92 797 676.435q0 24.565-7.5 49.065Q782 750 767 772.141L901 904l-53 52ZM619.859 779q43.081 0 73.611-30.099t30.53-72.76q0-43.081-30.401-73.611-30.402-30.53-73.5-30.53Q577 572 547 602.401q-30 30.402-30 73.5Q517 719 547.099 749q30.099 30 72.76 30Z"/></svg>